<svg width="24" height="24" viewBox="0 0 24 24" fill="none" xmlns="http://www.w3.org/2000/svg">
  <path
    d="M19 3.5C19.2652 3.5 19.5196 3.60536 19.7071 3.79289C19.8946 3.98043 20 4.23478 20 4.5C20 4.76522 19.8946 5.01957 19.7071 5.20711L18.5 6.414L15.586 3.5L16.7929 2.29289C16.9804 2.10536 17.2348 2 17.5 2C17.7652 2 18.0196 2.10536 18.2071 2.29289L19.7071 3.79289C19.8946 3.98043 20 4.23478 20 4.5C20 4.76522 19.8946 5.01957 19.7071 5.20711L19 5.914V5.5M15.586 3.5L5 14.086V17H7.914L18.5 6.414L15.586 3.5Z"
    stroke="#777777"
    stroke-width="2"
    stroke-linecap="round"
    stroke-linejoin="round"
  />
</svg>
